# File created by Blade
# Date/Time:  Wed Jan 21 16:02:01 2015
# Frame Rate: 120.000 fps
#------------------------------------------------------
:FULLY-SPECIFIED
:DEGREES
1722
root 21.616942 32.395124 -19.820374 -169.470508 4.810321 -178.837271
Spine -26.634925 6.934955 -25.782660
Head 18.613055 -14.616693 7.313434
LeftShoulder -14.118349 -32.351461 -0.045096
LeftArm -33.516092 -5.615699 -48.097000
LeftForeArm 3.050715 -0.000000 17.584468
LeftHand -2.934430 -0.000000 5.130206
LeftHandThumb1 -26.253704 0.000000 33.147579
RightShoulder -9.007600 13.187061 -40.452416
RightArm 38.884915 52.698943 -7.167079
RightForeArm -36.241705 -0.000000 15.569545
RightHand 0.115555 -0.000000 -37.101942
RightHandThumb1 -24.326973 -0.000000 -32.862282
LeftUpLeg 14.251773 0.841207 -15.698047
LeftLeg -1.981524 -0.000000 0.000000
LeftFoot -36.029430 19.363609 -16.610926
LeftToeBase 16.346638 -0.000000 -0.000000
RightUpLeg -16.794447 10.092414 25.561579
RightLeg -2.922037 -0.000000 0.000000
RightFoot -4.430025 -27.317205 -1.382253
RightToeBase 22.259865 -0.000000 -0.000000
1723
root 21.596823 32.399983 -19.804410 -169.487272 4.816997 -178.838055
Spine -26.571914 6.947862 -25.617958
Head 18.901961 -14.614674 7.326899
LeftShoulder -14.172639 -32.245771 -0.096501
LeftArm -33.349738 -5.589333 -48.288976
LeftForeArm 3.131847 -0.000000 17.597930
LeftHand -2.929740 0.000000 5.066831
LeftHandThumb1 -26.253704 0.000000 33.147579
RightShoulder -9.041509 13.092141 -40.451253
RightArm 38.856260 52.467228 -7.019946
RightForeArm -36.358668 -0.000000 15.575880
RightHand 0.089329 -0.000000 -37.028840
RightHandThumb1 -24.326973 -0.000000 -32.862282
LeftUpLeg 14.234575 0.841250 -15.725409
LeftLeg -1.975482 -0.000000 0.000000
LeftFoot -35.964996 19.351003 -16.573529
LeftToeBase 16.330155 -0.000000 -0.000000
RightUpLeg -16.830473 10.087897 25.532809
RightLeg -2.885661 -0.000000 0.000000
RightFoot -4.412366 -27.356826 -1.380279
RightToeBase 22.207689 -0.000000 -0.000000
1724
root 21.574641 32.406016 -19.786831 -169.503977 4.813497 -178.825861
Spine -26.516595 6.946979 -25.411805
Head 19.297293 -14.601048 7.314299
LeftShoulder -14.205784 -32.281240 -0.190361
LeftArm -33.307705 -5.484280 -48.392276
LeftForeArm 3.142075 0.000000 17.588244
LeftHand -2.866773 -0.000000 4.893014
LeftHandThumb1 -26.253704 0.000000 33.147579
RightShoulder -9.041590 13.001648 -40.431666
RightArm 38.802235 52.167970 -6.985257
RightForeArm -36.572695 -0.000000 15.453745
RightHand 0.065933 -0.000000 -37.163350
RightHandThumb1 -24.326973 -0.000000 -32.862282
LeftUpLeg 14.214033 0.810828 -15.746825
LeftLeg -1.965258 -0.000000 0.000000
LeftFoot -35.931516 19.358365 -16.568200
LeftToeBase 16.343413 -0.000000 -0.000000
RightUpLeg -16.873816 10.048568 25.518258
RightLeg -2.834712 -0.000000 0.000000
RightFoot -4.421109 -27.338643 -1.354080
RightToeBase 22.249444 -0.000000 -0.000000
1725
root 21.553447 32.411404 -19.770698 -169.522285 4.819853 -178.803063
Spine -26.479009 6.964161 -25.204118
Head 19.703943 -14.606649 7.284045
LeftShoulder -14.196966 -32.354012 -0.275669
LeftArm -33.371871 -5.222847 -48.572447
LeftForeArm 3.025877 -0.000000 17.687484
LeftHand -2.937256 -0.000000 5.038340
LeftHandThumb1 -26.253704 0.000000 33.147579
RightShoulder -9.001805 12.872574 -40.404309
RightArm 38.630127 51.824001 -7.064794
RightForeArm -36.476875 0.000000 15.305102
RightHand 0.222951 -0.000000 -37.160121
RightHandThumb1 -24.326973 -0.000000 -32.862282
LeftUpLeg 14.207286 0.777294 -15.761277
LeftLeg -1.973121 -0.000000 0.000000
LeftFoot -35.902849 19.372027 -16.575043
LeftToeBase 16.313680 -0.000000 -0.000000
RightUpLeg -16.899879 10.030898 25.516577
RightLeg -2.796310 -0.000000 0.000000
RightFoot -4.372604 -27.358249 -1.415518
RightToeBase 22.228121 -0.000000 -0.000000
1726
root 21.529301 32.416191 -19.754162 -169.532993 4.820792 -178.791388
Spine -26.457512 6.976571 -24.995567
Head 20.156417 -14.635847 7.198336
LeftShoulder -14.198572 -32.349437 -0.356264
LeftArm -33.358925 -5.257083 -48.663851
LeftForeArm 3.182539 0.000000 17.717446
LeftHand -3.019612 -0.000000 5.061812
LeftHandThumb1 -26.253704 0.000000 33.147579
RightShoulder -8.937565 12.822082 -40.371534
RightArm 38.402303 51.256837 -7.298284
RightForeArm -36.246158 -0.000000 15.078261
RightHand 0.216627 -0.000000 -37.143685
RightHandThumb1 -24.326973 -0.000000 -32.862282
LeftUpLeg 14.190235 0.764194 -15.791567
LeftLeg -1.983283 -0.000000 0.000000
LeftFoot -35.861015 19.395251 -16.592166
LeftToeBase 16.356272 -0.000000 -0.000000
RightUpLeg -16.932007 10.005018 25.493709
RightLeg -2.787711 -0.000000 0.000000
RightFoot -4.394877 -27.331549 -1.316245
RightToeBase 22.259967 -0.000000 -0.000000
1727
root 21.505069 32.420777 -19.736072 -169.542811 4.805298 -178.782196
Spine -26.419567 6.977096 -24.779845
Head 20.600856 -14.649150 7.128302
LeftShoulder -14.233032 -32.229901 -0.467524
LeftArm -33.181965 -5.214387 -48.837614
LeftForeArm 3.258780 0.000000 17.703463
LeftHand -2.974158 -0.000000 5.117657
LeftHandThumb1 -26.253704 0.000000 33.147579
RightShoulder -8.909447 12.795125 -40.378409
RightArm 38.351062 50.812536 -7.254717
RightForeArm -36.506923 -0.000000 14.866897
RightHand 0.211584 -0.000000 -37.138463
RightHandThumb1 -24.326973 -0.000000 -32.862282
LeftUpLeg 14.168309 0.746143 -15.814342
LeftLeg -1.980386 -0.000000 0.000000
LeftFoot -35.831405 19.315472 -16.597475
LeftToeBase 16.588058 -0.000000 -0.000000
RightUpLeg -16.975824 9.977057 25.466802
RightLeg -2.767003 -0.000000 0.000000
RightFoot -4.397743 -27.364441 -1.309997
RightToeBase 22.330082 -0.000000 -0.000000
1728
root 21.480206 32.425233 -19.717025 -169.552482 4.788378 -178.776677
Spine -26.377945 6.971348 -24.554077
Head 21.066367 -14.645873 7.035625
LeftShoulder -14.258707 -32.159871 -0.582324
LeftArm -33.054915 -5.168988 -48.974218
LeftForeArm 3.483389 0.000000 17.687552
LeftHand -3.014322 -0.000000 5.094621
LeftHandThumb1 -26.253704 0.000000 33.147579
RightShoulder -8.835570 12.669880 -40.317984
RightArm 38.251074 50.508189 -7.302748
RightForeArm -36.600307 -0.000000 14.694683
RightHand 0.322430 0.000000 -36.635702
RightHandThumb1 -24.326973 -0.000000 -32.862282
LeftUpLeg 14.146672 0.719480 -15.844360
LeftLeg -1.984573 -0.000000 0.000000
LeftFoot -35.791190 19.326338 -16.580311
LeftToeBase 16.607432 -0.000000 -0.000000
RightUpLeg -17.016234 9.973816 25.431378
RightLeg -2.758148 -0.000000 0.000000
RightFoot -4.364608 -27.369810 -1.322110
RightToeBase 22.257829 -0.000000 -0.000000
1729
root 21.453178 32.429891 -19.696005 -169.556144 4.759690 -178.779090
Spine -26.330817 6.966248 -24.339124
Head 21.522214 -14.672053 6.953670
LeftShoulder -14.247587 -32.244842 -0.693485
LeftArm -33.099951 -5.032322 -49.074025
LeftForeArm 3.596105 -0.000000 17.741442
LeftHand -2.910660 -0.000000 4.890875
LeftHandThumb1 -26.253704 0.000000 33.147579
RightShoulder -8.769301 12.586888 -40.271507
RightArm 38.144130 50.130424 -7.339886
RightForeArm -36.835025 0.000000 14.538446
RightHand 0.180647 -0.000000 -36.360486
RightHandThumb1 -24.326973 -0.000000 -32.862282
LeftUpLeg 14.109009 0.690700 -15.882851
LeftLeg -1.969457 -0.000000 0.000000
LeftFoot -35.732127 19.386267 -16.501704
LeftToeBase 16.576256 -0.000000 -0.000000
RightUpLeg -17.068817 9.946266 25.391699
RightLeg -2.755817 -0.000000 0.000000
RightFoot -4.356023 -27.409636 -1.323999
RightToeBase 22.366375 -0.000000 -0.000000
1730
root 21.426489 32.434090 -19.674511 -169.565146 4.719384 -178.780045
Spine -26.272239 6.952902 -24.113131
Head 21.970150 -14.643429 6.859293
LeftShoulder -14.240292 -32.298930 -0.810255
LeftArm -33.123026 -4.917560 -49.205315
LeftForeArm 3.617878 -0.000000 17.801425
LeftHand -2.953948 -0.000000 4.973472
LeftHandThumb1 -26.253704 0.000000 33.147579
RightShoulder -8.780951 12.783840 -40.281652
RightArm 38.386033 49.547027 -7.033689
RightForeArm -36.915179 -0.000000 14.324850
RightHand 0.222567 0.000000 -35.862439
RightHandThumb1 -24.326973 -0.000000 -32.862282
LeftUpLeg 14.080080 0.674876 -15.913211
LeftLeg -1.963920 -0.000000 0.000000
LeftFoot -35.688741 19.385058 -16.468944
LeftToeBase 16.561342 -0.000000 -0.000000
RightUpLeg -17.107837 9.917168 25.364299
RightLeg -2.783576 -0.000000 0.000000
RightFoot -4.261194 -27.535256 -1.437713
RightToeBase 22.321010 -0.000000 -0.000000
1731
root 21.399240 32.438347 -19.651811 -169.569437 4.689742 -178.780754
Spine -26.216659 6.971517 -23.894075
Head 22.440255 -14.681411 6.748510
LeftShoulder -14.217082 -32.287243 -0.978203
LeftArm -33.078852 -4.758192 -49.357348
LeftForeArm 3.714059 -0.000000 17.917521
LeftHand -3.054816 -0.000000 5.008476
LeftHandThumb1 -26.253704 0.000000 33.147579
RightShoulder -8.774948 12.817062 -40.253769
RightArm 38.514718 49.147633 -6.816856
RightForeArm -36.993243 -0.000000 14.147468
RightHand 0.293331 -0.000000 -35.491962
RightHandThumb1 -24.326973 -0.000000 -32.862282
LeftUpLeg 14.040150 0.705938 -15.939112
LeftLeg -1.956486 -0.000000 0.000000
LeftFoot -35.651811 19.342695 -16.442681
LeftToeBase 16.589086 -0.000000 -0.000000
RightUpLeg -17.148646 9.874825 25.332622
RightLeg -2.806889 -0.000000 0.000000
RightFoot -4.211224 -27.570152 -1.465052
RightToeBase 22.356916 -0.000000 -0.000000
1732
root 21.372307 32.442344 -19.629877 -169.587985 4.659376 -178.776883
Spine -26.144628 6.984118 -23.667695
Head 22.898457 -14.694394 6.657941
LeftShoulder -14.256608 -32.178650 -1.107054
LeftArm -32.903895 -4.798796 -49.491523
LeftForeArm 3.869778 0.000000 17.959693
LeftHand -3.117068 -0.000000 4.901680
LeftHandThumb1 -26.253704 0.000000 33.147579
RightShoulder -8.696991 12.774971 -40.174443
RightArm 38.478362 48.787492 -6.767776
RightForeArm -37.009739 -0.000000 13.996324
RightHand 0.321021 -0.000000 -35.199153
RightHandThumb1 -24.326973 -0.000000 -32.862282
LeftUpLeg 14.016252 0.770128 -15.952250
LeftLeg -1.950790 -0.000000 0.000000
LeftFoot -35.603318 19.287491 -16.397410
LeftToeBase 16.566772 -0.000000 -0.000000
RightUpLeg -17.170209 9.824818 25.306601
RightLeg -2.833552 -0.000000 0.000000
RightFoot -4.171960 -27.591063 -1.491851
RightToeBase 22.244978 -0.000000 -0.000000
1733
root 21.344550 32.445805 -19.607292 -169.617223 4.633912 -178.776163
Spine -26.051144 7.027838 -23.454931
Head 23.338926 -14.713337 6.583937
LeftShoulder -14.257085 -32.246774 -1.190087
LeftArm -32.910789 -4.800678 -49.611628
LeftForeArm 3.975503 0.000000 18.004148
LeftHand -3.079543 -0.000000 4.713540
LeftHandThumb1 -26.253704 0.000000 33.147579
RightShoulder -8.646148 12.677841 -40.080221
RightArm 38.489387 48.577056 -6.599655
RightForeArm -37.032162 -0.000000 13.951924
RightHand 0.365897 -0.000000 -34.810303
RightHandThumb1 -24.326973 -0.000000 -32.862282
LeftUpLeg 14.011960 0.783450 -15.982611
LeftLeg -1.964433 -0.000000 0.000000
LeftFoot -35.558675 19.271908 -16.376107
LeftToeBase 16.599623 -0.000000 -0.000000
RightUpLeg -17.186325 9.751271 25.284702
RightLeg -2.858710 -0.000000 0.000000
RightFoot -4.212907 -27.567325 -1.382860
RightToeBase 22.369705 -0.000000 -0.000000
